<svg width="834" height="667" viewBox="0 0 834 667" fill="none" xmlns="http://www.w3.org/2000/svg">
<g id="one-story" clip-path="url(#clip0_251_41)">
<g id="inputBlock_pictogram_1floor">
<path id="Vector" d="M647.153 413.058L329.753 528.548V405.247L647.153 289.758V413.058Z" stroke="black" stroke-width="2" stroke-miterlimit="10"/>
<path id="Vector_2" d="M647.153 289.76L329.753 405.249L223.953 263.638L541.353 148.148L647.153 289.76Z" stroke="black" stroke-width="2" stroke-miterlimit="10"/>
<path id="Vector_3" d="M426.691 473.313L373.79 492.562V412.708L426.691 393.461V473.313Z" stroke="black" stroke-width="2" stroke-miterlimit="10"/>
<path id="Vector_4" d="M514.904 461.18L462.003 480.428V380.612L514.904 361.363V461.18Z" stroke="black" stroke-width="2" stroke-miterlimit="10"/>
<path id="Vector_5" d="M607.477 407.532L554.578 426.781V346.928L607.477 327.68V407.532Z" stroke="black" stroke-width="2" stroke-miterlimit="10"/>
<path id="Vector_6" d="M419.637 467.895L380.844 482.01V418.127L419.637 404.012V467.895Z" stroke="black" stroke-width="2" stroke-miterlimit="10"/>
<path id="Vector_7" d="M400.241 411.068V474.952" stroke="black" stroke-width="2" stroke-miterlimit="10"/>
<path id="Vector_8" d="M380.844 434.098L419.637 419.982" stroke="black" stroke-width="2" stroke-miterlimit="10"/>
<path id="Vector_9" d="M600.424 402.114L561.631 416.229V352.346L600.424 338.23V402.114Z" stroke="black" stroke-miterlimit="10"/>
<path id="Vector_10" d="M581.027 345.287V409.17" stroke="black" stroke-width="2" stroke-miterlimit="10"/>
<path id="Vector_11" d="M561.631 368.317L600.424 354.201" stroke="black" stroke-width="2" stroke-miterlimit="10"/>
<path id="Vector_12" d="M507.849 463.745L469.056 477.86V386.029L507.849 371.914V463.745Z" stroke="black" stroke-width="2" stroke-miterlimit="10"/>
<path id="Vector_13" d="M500.796 426.386L476.109 435.37V391.45L500.796 382.467V426.386Z" stroke="black" stroke-width="2" stroke-miterlimit="10"/>
<path id="Vector_14" d="M500.796 458.327L476.109 467.31V443.353L500.796 434.371V458.327Z" stroke="black" stroke-width="2" stroke-miterlimit="10"/>
<path id="Vector_15" d="M476.109 407.421L500.796 398.438" stroke="black" stroke-width="2" stroke-miterlimit="10"/>
<path id="Vector_16" d="M488.453 386.957V430.878" stroke="black" stroke-width="2" stroke-miterlimit="10"/>
<path id="Vector_17" d="M224.077 263.637L118.152 328.254V451.554L329.752 528.548V405.248L224.077 263.637Z" stroke="black" stroke-width="2" stroke-miterlimit="10"/>
<path id="Vector_18" d="M250.528 479.757L197.627 460.51V380.656L250.528 399.905V479.757Z" stroke="black" stroke-width="2" stroke-miterlimit="10"/>
<path id="Vector_19" d="M243.474 469.206L204.681 455.09V391.207L243.474 405.322V469.206Z" stroke="black" stroke-width="2" stroke-miterlimit="10"/>
<path id="Vector_20" d="M224.078 398.266V462.149" stroke="black" stroke-width="2" stroke-miterlimit="10"/>
<path id="Vector_21" d="M204.681 407.18L243.474 421.295" stroke="black" stroke-width="2" stroke-miterlimit="10"/>
<path id="Vector_22" d="M243.474 335.923C243.474 348.051 234.789 354.722 224.078 350.825C213.365 346.927 204.682 333.936 204.682 321.807C204.682 309.679 213.366 303.008 224.078 306.905C234.79 310.803 243.474 323.796 243.474 335.923Z" stroke="black" stroke-width="2" stroke-miterlimit="10"/>
<path id="Vector_23" d="M236.421 333.358C236.421 341.075 230.894 345.321 224.078 342.84C217.261 340.36 211.734 332.092 211.734 324.374C211.734 316.656 217.261 312.411 224.078 314.892C230.894 317.372 236.421 325.64 236.421 333.358Z" stroke="black" stroke-width="2" stroke-miterlimit="10"/>
<path id="Vector_24" d="M224.078 314.893V342.841" stroke="black" stroke-miterlimit="10"/>
<path id="Vector_25" d="M236.421 333.359L211.734 324.375" stroke="black" stroke-miterlimit="10"/>
<path id="Vector_26" d="M118.153 451.555L8.42188 491.482" stroke="black" stroke-miterlimit="10"/>
<path id="Vector_27" d="M329.752 528.549L220.021 568.476" stroke="black" stroke-miterlimit="10"/>
<path id="Vector_28" d="M264.371 565.17L17.5039 475.346" stroke="black" stroke-miterlimit="10"/>
<path id="Vector_29" d="M329.753 528.586L439.484 568.513" stroke="black" stroke-miterlimit="10"/>
<path id="Vector_30" d="M647.152 413.098L756.883 453.025" stroke="black" stroke-miterlimit="10"/>
<path id="Vector_31" d="M747.8 436.887L395.134 565.209" stroke="black" stroke-miterlimit="10"/>
<path id="Vector_32" d="M647.152 413.098L756.883 453.025" stroke="black" stroke-miterlimit="10"/>
<path id="Vector_33" d="M541.353 148.148L756.883 226.571" stroke="black" stroke-miterlimit="10"/>
<path id="Vector_34" d="M729.526 203.297V462.226" stroke="black" stroke-miterlimit="10"/>
<path id="8 &#208;&#188;" d="M571.909 530.426C570.459 530.954 569.179 531.146 568.067 531.004C566.963 530.852 566.101 530.406 565.482 529.665C564.862 528.917 564.556 527.921 564.563 526.675C564.556 525.704 564.736 524.741 565.102 523.784C565.467 522.82 565.967 521.945 566.6 521.161C567.241 520.366 567.955 519.751 568.743 519.314V519.179C567.708 519.271 566.885 518.953 566.273 518.225C565.661 517.489 565.358 516.51 565.365 515.287C565.358 514.122 565.636 512.976 566.199 511.85C566.762 510.724 567.536 509.717 568.521 508.827C569.513 507.934 570.642 507.257 571.909 506.796C573.161 506.341 574.28 506.199 575.265 506.373C576.25 506.546 577.024 506.99 577.587 507.706C578.157 508.42 578.445 509.36 578.452 510.525C578.445 511.748 578.132 512.951 577.513 514.135C576.901 515.309 576.088 516.222 575.075 516.875V517.01C575.856 516.876 576.56 516.975 577.186 517.309C577.812 517.635 578.312 518.146 578.685 518.841C579.057 519.529 579.247 520.359 579.254 521.329C579.247 522.575 578.931 523.798 578.305 524.999C577.685 526.191 576.824 527.264 575.719 528.22C574.621 529.166 573.351 529.902 571.909 530.426ZM571.909 527.956C572.887 527.6 573.731 527.124 574.442 526.528C575.152 525.933 575.701 525.258 576.088 524.503C576.475 523.748 576.672 522.958 576.679 522.132C576.672 521.266 576.461 520.575 576.046 520.06C575.631 519.544 575.065 519.226 574.347 519.106C573.636 518.982 572.824 519.087 571.909 519.42C570.987 519.755 570.164 520.246 569.439 520.891C568.722 521.534 568.155 522.265 567.74 523.082C567.332 523.897 567.131 524.737 567.138 525.603C567.131 526.429 567.318 527.08 567.698 527.556C568.085 528.029 568.637 528.304 569.355 528.38C570.073 528.455 570.924 528.314 571.909 527.956ZM571.909 517.039C572.683 516.757 573.369 516.343 573.967 515.796C574.572 515.246 575.047 514.613 575.392 513.896C575.736 513.179 575.912 512.423 575.919 511.626C575.912 510.85 575.74 510.235 575.402 509.782C575.065 509.321 574.597 509.042 573.999 508.945C573.401 508.84 572.704 508.933 571.909 509.222C571.1 509.517 570.393 509.935 569.788 510.477C569.182 511.012 568.715 511.631 568.384 512.336C568.053 513.032 567.891 513.769 567.898 514.545C567.891 515.341 568.057 515.974 568.394 516.442C568.739 516.908 569.214 517.196 569.819 517.305C570.424 517.415 571.121 517.326 571.909 517.039ZM600.566 516.09L606.222 500.375L608.587 499.515L601.579 519.316L599.552 520.053L592.671 505.306L594.993 504.461L600.566 516.09ZM594.191 504.753V522.004L591.7 522.91V505.66L594.191 504.753ZM606.94 517.365V500.114L609.431 499.208V516.458L606.94 517.365Z" fill="black"/>
<path id="8 &#208;&#188;_2" d="M101.088 534.283C99.6382 533.755 98.3576 533.016 97.246 532.065C96.1413 531.109 95.2794 530.035 94.6602 528.844C94.0411 527.645 93.735 526.426 93.742 525.186C93.735 524.21 93.9144 523.377 94.2803 522.686C94.6462 521.988 95.1457 521.477 95.779 521.154C96.4192 520.825 97.1334 520.729 97.9214 520.866V520.732C96.8871 520.071 96.0639 519.153 95.4518 517.98C94.8397 516.799 94.5371 515.599 94.5441 514.381C94.5371 513.211 94.815 512.267 95.3779 511.551C95.9408 510.835 96.7147 510.391 97.6998 510.217C98.6919 510.047 99.8211 510.192 101.088 510.653C102.34 511.108 103.459 511.781 104.444 512.671C105.429 513.561 106.203 514.569 106.766 515.695C107.336 516.823 107.624 517.973 107.631 519.143C107.624 520.361 107.311 521.337 106.692 522.07C106.08 522.798 105.267 523.12 104.254 523.036V523.171C105.035 523.604 105.738 524.216 106.365 525.006C106.991 525.787 107.49 526.662 107.863 527.629C108.236 528.588 108.426 529.556 108.433 530.531C108.426 531.772 108.11 532.765 107.483 533.51C106.864 534.251 106.002 534.697 104.898 534.849C103.8 534.996 102.53 534.808 101.088 534.283ZM101.088 531.812C102.066 532.168 102.91 532.306 103.621 532.228C104.331 532.15 104.88 531.874 105.267 531.401C105.654 530.928 105.851 530.281 105.858 529.46C105.851 528.589 105.64 527.744 105.225 526.927C104.81 526.109 104.243 525.379 103.526 524.736C102.815 524.096 102.002 523.609 101.088 523.276C100.166 522.941 99.3427 522.832 98.618 522.95C97.9003 523.071 97.3339 523.389 96.9188 523.904C96.5107 524.422 96.3102 525.117 96.3172 525.988C96.3102 526.809 96.4966 527.596 96.8766 528.348C97.2635 529.103 97.8159 529.779 98.5335 530.377C99.2512 530.975 100.103 531.453 101.088 531.812ZM101.088 520.895C101.862 521.177 102.548 521.262 103.146 521.15C103.751 521.041 104.226 520.753 104.57 520.287C104.915 519.821 105.091 519.192 105.098 518.401C105.091 517.62 104.919 516.88 104.581 516.18C104.243 515.473 103.775 514.854 103.177 514.322C102.579 513.782 101.883 513.368 101.088 513.079C100.278 512.784 99.5714 512.688 98.9663 512.79C98.3612 512.884 97.8933 513.163 97.5626 513.627C97.2319 514.083 97.0701 514.701 97.0771 515.483C97.0701 516.274 97.2354 517.027 97.5731 517.741C97.9179 518.458 98.3928 519.091 98.9979 519.641C99.603 520.19 100.3 520.609 101.088 520.895ZM129.744 540.802L135.401 529.203L137.765 530.064L130.757 544.764L128.731 544.027L121.85 524.272L124.172 525.117L129.744 540.802ZM123.37 524.825V542.076L120.879 541.17V523.919L123.37 524.825ZM136.119 546.715V529.465L138.61 530.371V547.622L136.119 546.715Z" fill="black"/>
<path id="1 &#209;&#141;&#209;&#130;&#208;&#176;&#208;&#182;" d="M737.296 387.816L758.911 395.681V398.466L740.04 391.6V391.735L743.544 398.625L740.884 397.658L737.296 390.602V387.816ZM744.811 369.29C744.818 369.892 744.962 370.547 745.243 371.256C745.525 371.957 745.898 372.594 746.362 373.168C746.819 373.731 747.33 374.115 747.892 374.32V376.925C747.189 376.669 746.513 376.244 745.866 375.649C745.219 375.054 744.642 374.361 744.135 373.57C743.629 372.772 743.227 371.93 742.932 371.044C742.636 370.15 742.489 369.284 742.489 368.445C742.489 366.873 742.862 365.676 743.607 364.854C744.353 364.025 745.338 363.548 746.563 363.425C747.787 363.294 749.117 363.489 750.552 364.011L751.143 364.226C752.571 364.746 753.901 365.518 755.133 366.543C756.357 367.557 757.342 368.751 758.088 370.123C758.834 371.487 759.207 372.955 759.207 374.528C759.207 375.786 758.946 376.81 758.426 377.602C757.898 378.391 757.194 378.906 756.315 379.147C755.435 379.389 754.457 379.314 753.381 378.922V376.317C753.993 376.539 754.566 376.564 755.101 376.392C755.629 376.21 756.058 375.883 756.389 375.412C756.712 374.931 756.878 374.354 756.885 373.683C756.878 372.677 756.582 371.716 755.998 370.8C755.414 369.883 754.682 369.082 753.803 368.395C752.923 367.708 752.037 367.202 751.143 366.877L750.552 366.662C749.637 366.329 748.744 366.187 747.871 366.237C746.992 366.276 746.264 366.543 745.687 367.037C745.11 367.523 744.818 368.274 744.811 369.29ZM749.581 365.231L751.903 366.075V373.623L749.581 372.778V365.231ZM745.022 360.216L742.7 359.372V345.355L745.022 346.2V351.86L758.911 356.914V359.564L745.022 354.511V360.216ZM759.291 343.345C759.291 344.438 759.097 345.359 758.71 346.11C758.316 346.857 757.75 347.359 757.011 347.614C756.265 347.867 755.365 347.801 754.309 347.417C753.381 347.079 752.628 346.611 752.051 346.011C751.467 345.41 751.009 344.723 750.679 343.951C750.348 343.179 750.102 342.371 749.94 341.526C749.771 340.671 749.637 339.825 749.539 338.988C749.412 337.894 749.317 337.009 749.254 336.335C749.184 335.65 749.067 335.129 748.906 334.77C748.744 334.405 748.462 334.149 748.061 334.003L747.977 333.972C746.936 333.593 746.126 333.602 745.549 333.999C744.972 334.388 744.684 335.192 744.684 336.413C744.684 337.678 744.944 338.765 745.465 339.673C745.986 340.581 746.542 341.289 747.133 341.796L746.288 344.005C745.303 343.197 744.536 342.319 743.987 341.371C743.432 340.412 743.045 339.448 742.826 338.477C742.601 337.497 742.489 336.572 742.489 335.704C742.489 335.15 742.552 334.536 742.679 333.864C742.798 333.181 743.048 332.572 743.428 332.036C743.808 331.493 744.381 331.136 745.148 330.966C745.915 330.796 746.943 330.945 748.23 331.414L758.911 335.3V337.95L756.716 337.152V337.286C757.068 337.594 757.444 338.03 757.845 338.596C758.246 339.161 758.587 339.843 758.869 340.642C759.15 341.44 759.291 342.341 759.291 343.345ZM757.053 342.126C757.053 341.078 756.86 340.124 756.473 339.265C756.086 338.397 755.586 337.669 754.974 337.079C754.362 336.482 753.718 336.061 753.043 335.815L750.763 334.986C750.89 335.144 751.006 335.433 751.111 335.854C751.21 336.264 751.298 336.73 751.375 337.253C751.446 337.765 751.509 338.263 751.565 338.748C751.615 339.223 751.657 339.609 751.692 339.906C751.776 340.626 751.914 341.319 752.104 341.987C752.287 342.646 752.564 343.226 752.937 343.728C753.303 344.221 753.803 344.582 754.436 344.813C755.301 345.128 755.956 345.025 756.399 344.505C756.835 343.975 757.053 343.182 757.053 342.126ZM758.911 331.54L750.679 321.537L742.7 325.552V322.407L749.623 319.176V317.739L742.7 315.219V312.569L749.623 315.088V313.695L742.7 305.426V302.281L750.679 312.058L758.911 308.09V311.279L751.945 314.585V315.933L758.911 318.467V321.118L751.945 318.583V319.931L758.911 328.351V331.54Z" fill="black"/>
</g>
</g>
<defs>
<clipPath id="clip0_251_41">
<rect width="834" height="667" fill="white"/>
</clipPath>
</defs>
</svg>
