<svg width="857" height="686" viewBox="0 0 857 686" fill="none" xmlns="http://www.w3.org/2000/svg">
<g id="two-story" clip-path="url(#clip0_251_42)">
<g id="inputBlock_pictogram_2floor">
<path id="Vector" d="M664.999 424.825L338.847 543.605V297.221L664.999 178.441V424.825Z" stroke="black" stroke-width="2" stroke-miterlimit="10"/>
<path id="Vector_2" d="M664.999 178.442L338.846 297.221L230.129 151.576L556.282 32.7969L664.999 178.442Z" stroke="black" stroke-width="2" stroke-miterlimit="10"/>
<path id="Vector_3" d="M438.458 486.795L384.099 506.592V424.463L438.458 404.668V486.795Z" stroke="black" stroke-width="2" stroke-miterlimit="10"/>
<path id="Vector_4" d="M431.209 358.03L391.346 372.547V306.846L431.209 292.328V358.03Z" stroke="black" stroke-width="2" stroke-miterlimit="10"/>
<path id="Vector_5" d="M529.102 474.316L474.744 494.113V391.453L529.102 371.656V474.316Z" stroke="black" stroke-width="2" stroke-miterlimit="10"/>
<path id="Vector_6" d="M529.102 330.593L474.744 350.389V268.262L529.102 248.465V330.593Z" stroke="black" stroke-width="2" stroke-miterlimit="10"/>
<path id="Vector_7" d="M438.458 363.605L384.099 383.402V301.273L438.458 281.477V363.605Z" stroke="black" stroke-width="2" stroke-miterlimit="10"/>
<path id="Vector_8" d="M624.23 419.141L569.872 438.938V356.81L624.23 337.014V419.141Z" stroke="black" stroke-width="2" stroke-miterlimit="10"/>
<path id="Vector_9" d="M411.278 299.588V365.29" stroke="black" stroke-width="2" stroke-miterlimit="10"/>
<path id="Vector_10" d="M391.346 323.271L431.209 308.754" stroke="black" stroke-width="2" stroke-miterlimit="10"/>
<path id="Vector_11" d="M521.855 325.019L481.991 339.537V273.834L521.855 259.316V325.019Z" stroke="black" stroke-width="2" stroke-miterlimit="10"/>
<path id="Vector_12" d="M501.924 266.576V332.279" stroke="black" stroke-width="2" stroke-miterlimit="10"/>
<path id="Vector_13" d="M481.991 290.262L521.855 275.744" stroke="black" stroke-width="2" stroke-miterlimit="10"/>
<path id="Vector_14" d="M616.982 290.375L577.119 304.893V239.191L616.982 224.674V290.375Z" stroke="black" stroke-width="2" stroke-miterlimit="10"/>
<path id="Vector_15" d="M597.051 231.932V297.633" stroke="black" stroke-width="2" stroke-miterlimit="10"/>
<path id="Vector_16" d="M577.119 255.617L616.982 241.1" stroke="black" stroke-width="2" stroke-miterlimit="10"/>
<path id="Vector_17" d="M431.209 481.223L391.346 495.74V430.037L431.209 415.52V481.223Z" stroke="black" stroke-width="2" stroke-miterlimit="10"/>
<path id="Vector_18" d="M411.278 422.779V488.482" stroke="black" stroke-width="2" stroke-miterlimit="10"/>
<path id="Vector_19" d="M391.346 446.463L431.209 431.945" stroke="black" stroke-width="2" stroke-miterlimit="10"/>
<path id="Vector_20" d="M616.982 413.568L577.119 428.086V362.383L616.982 347.865V413.568Z" stroke="black" stroke-width="2" stroke-miterlimit="10"/>
<path id="Vector_21" d="M597.051 355.123V420.826" stroke="black" stroke-width="2" stroke-miterlimit="10"/>
<path id="Vector_22" d="M577.119 378.808L616.982 364.291" stroke="black" stroke-width="2" stroke-miterlimit="10"/>
<path id="Vector_23" d="M624.23 295.949L569.872 315.746V233.617L624.23 213.82V295.949Z" stroke="black" stroke-width="2" stroke-miterlimit="10"/>
<path id="Vector_24" d="M521.855 476.956L481.991 491.474V397.027L521.855 382.51V476.956Z" stroke="black" stroke-width="2" stroke-miterlimit="10"/>
<path id="Vector_25" d="M514.607 438.532L489.24 447.771V402.601L514.607 393.361V438.532Z" stroke="black" stroke-width="2" stroke-miterlimit="10"/>
<path id="Vector_26" d="M514.607 471.383L489.24 480.621V455.982L514.607 446.744V471.383Z" stroke="black" stroke-width="2" stroke-miterlimit="10"/>
<path id="Vector_27" d="M489.24 419.027L514.607 409.787" stroke="black" stroke-width="2" stroke-miterlimit="10"/>
<path id="Vector_28" d="M501.924 397.98V443.152" stroke="black" stroke-width="2" stroke-miterlimit="10"/>
<path id="Vector_29" d="M230.257 151.576L121.411 218.035V464.419L338.846 543.605V297.221L230.257 151.576Z" stroke="black" stroke-width="2" stroke-miterlimit="10"/>
<path id="Vector_30" d="M257.437 493.424L203.077 473.628V391.5L257.437 411.297V493.424Z" stroke="black" stroke-width="2" stroke-miterlimit="10"/>
<path id="Vector_31" d="M250.189 359.379L210.325 344.862V279.16L250.189 293.678V359.379Z" stroke="black" stroke-width="2" stroke-miterlimit="10"/>
<path id="Vector_32" d="M257.437 370.232L203.077 350.436V268.309L257.437 288.104V370.232Z" stroke="black" stroke-width="2" stroke-miterlimit="10"/>
<path id="Vector_33" d="M230.258 286.42V352.122" stroke="black" stroke-width="2" stroke-miterlimit="10"/>
<path id="Vector_34" d="M210.325 295.586L250.189 310.103" stroke="black" stroke-width="2" stroke-miterlimit="10"/>
<path id="Vector_35" d="M250.189 482.572L210.325 468.055V402.352L250.189 416.869V482.572Z" stroke="black" stroke-width="2" stroke-miterlimit="10"/>
<path id="Vector_36" d="M230.258 409.611V475.314" stroke="black" stroke-width="2" stroke-miterlimit="10"/>
<path id="Vector_37" d="M210.325 418.779L250.189 433.297" stroke="black" stroke-width="2" stroke-miterlimit="10"/>
<path id="Vector_38" d="M250.188 225.924C250.188 238.397 241.264 245.259 230.257 241.25C219.249 237.241 210.326 223.88 210.326 211.406C210.326 198.932 219.25 192.071 230.257 196.08C241.265 200.089 250.188 213.45 250.188 225.924Z" stroke="black" stroke-width="2" stroke-miterlimit="10"/>
<path id="Vector_39" d="M242.941 223.283C242.941 231.22 237.262 235.587 230.258 233.035C223.253 230.484 217.574 221.981 217.574 214.043C217.574 206.106 223.253 201.74 230.258 204.291C237.262 206.842 242.941 215.345 242.941 223.283Z" stroke="black" stroke-width="2" stroke-miterlimit="10"/>
<path id="Vector_40" d="M230.258 204.291V233.036" stroke="black" stroke-width="2" stroke-miterlimit="10"/>
<path id="Vector_41" d="M242.941 223.283L217.574 214.045" stroke="black" stroke-width="2" stroke-miterlimit="10"/>
<path id="Vector_42" d="M121.411 464.42L8.6543 505.483" stroke="black" stroke-miterlimit="10"/>
<path id="Vector_43" d="M338.847 543.605L226.09 584.67" stroke="black" stroke-miterlimit="10"/>
<path id="Vector_44" d="M271.662 581.269L17.9873 488.887" stroke="black" stroke-miterlimit="10"/>
<path id="Vector_45" d="M338.847 543.645L451.604 584.709" stroke="black" stroke-miterlimit="10"/>
<path id="Vector_46" d="M664.999 424.863L777.756 465.928" stroke="black" stroke-miterlimit="10"/>
<path id="Vector_47" d="M768.424 449.332L406.031 581.31" stroke="black" stroke-miterlimit="10"/>
<path id="Vector_48" d="M664.999 424.863L777.756 465.928" stroke="black" stroke-miterlimit="10"/>
<path id="Vector_49" d="M556.281 32.7969L777.756 113.455" stroke="black" stroke-miterlimit="10"/>
<path id="Vector_50" d="M749.645 89.5176V475.393" stroke="black" stroke-miterlimit="10"/>
<path id="8 &#208;&#188;" d="M587.43 544.736C585.981 545.264 584.701 545.457 583.589 545.315C582.485 545.164 581.623 544.717 581.004 543.977C580.385 543.229 580.079 542.233 580.086 540.987C580.079 540.016 580.258 539.053 580.624 538.096C580.99 537.131 581.489 536.257 582.122 535.472C582.763 534.677 583.477 534.062 584.265 533.625V533.49C583.23 533.582 582.407 533.264 581.795 532.537C581.183 531.801 580.881 530.822 580.888 529.599C580.881 528.433 581.158 527.288 581.721 526.162C582.284 525.036 583.058 524.028 584.043 523.137C585.035 522.245 586.164 521.568 587.43 521.106C588.683 520.65 589.801 520.509 590.786 520.682C591.771 520.854 592.545 521.299 593.108 522.015C593.678 522.728 593.966 523.668 593.973 524.833C593.966 526.056 593.653 527.259 593.034 528.443C592.422 529.617 591.609 530.531 590.596 531.184V531.319C591.377 531.184 592.081 531.284 592.707 531.617C593.333 531.943 593.832 532.454 594.205 533.149C594.578 533.837 594.768 534.666 594.775 535.637C594.768 536.883 594.452 538.106 593.825 539.307C593.206 540.499 592.345 541.573 591.24 542.529C590.142 543.475 588.873 544.211 587.43 544.736ZM587.43 542.265C588.408 541.909 589.253 541.433 589.963 540.838C590.674 540.242 591.222 539.567 591.609 538.812C591.996 538.057 592.193 537.266 592.2 536.44C592.193 535.574 591.982 534.884 591.567 534.368C591.152 533.853 590.586 533.535 589.868 533.415C589.158 533.292 588.345 533.397 587.43 533.73C586.509 534.066 585.686 534.556 584.961 535.202C584.243 535.845 583.677 536.576 583.262 537.393C582.854 538.208 582.653 539.049 582.661 539.915C582.653 540.741 582.84 541.392 583.22 541.867C583.607 542.34 584.159 542.615 584.877 542.69C585.594 542.766 586.445 542.624 587.43 542.265ZM587.43 531.349C588.204 531.067 588.89 530.653 589.488 530.105C590.093 529.556 590.568 528.922 590.913 528.205C591.258 527.488 591.433 526.731 591.441 525.935C591.433 525.159 591.261 524.544 590.923 524.091C590.586 523.63 590.118 523.351 589.52 523.254C588.922 523.15 588.225 523.243 587.43 523.532C586.621 523.827 585.914 524.245 585.309 524.788C584.704 525.322 584.236 525.942 583.906 526.647C583.575 527.343 583.413 528.08 583.42 528.856C583.413 529.652 583.579 530.285 583.916 530.753C584.261 531.219 584.736 531.507 585.341 531.616C585.946 531.725 586.642 531.636 587.43 531.349ZM616.084 530.392L621.74 514.675L624.104 513.814L617.097 533.617L615.071 534.355L608.191 519.61L610.512 518.765L616.084 530.392ZM609.71 519.057V536.308L607.22 537.215V519.964L609.71 519.057ZM622.458 531.665V514.414L624.949 513.507V530.758L622.458 531.665Z" fill="black"/>
<path id="8 &#208;&#188;_2" d="M103.626 548.518C102.176 547.99 100.896 547.25 99.7845 546.299C98.6799 545.343 97.8181 544.269 97.199 543.077C96.5799 541.879 96.2739 540.659 96.2809 539.419C96.2739 538.443 96.4533 537.61 96.8191 536.919C97.1849 536.221 97.6844 535.711 98.3176 535.387C98.9578 535.059 99.6719 534.963 100.46 535.1V534.966C99.4257 534.305 98.6025 533.387 97.9905 532.213C97.3784 531.032 97.0759 529.832 97.0829 528.614C97.0759 527.444 97.3538 526.501 97.9166 525.785C98.4794 525.069 99.2533 524.624 100.238 524.451C101.23 524.281 102.359 524.427 103.626 524.888C104.878 525.344 105.997 526.017 106.982 526.907C107.966 527.798 108.74 528.806 109.303 529.932C109.873 531.06 110.161 532.21 110.169 533.38C110.161 534.598 109.848 535.574 109.229 536.306C108.617 537.034 107.805 537.356 106.792 537.272V537.406C107.572 537.841 108.276 538.452 108.902 539.242C109.528 540.024 110.028 540.899 110.401 541.866C110.774 542.825 110.963 543.793 110.971 544.769C110.963 546.009 110.647 547.002 110.021 547.747C109.402 548.487 108.54 548.933 107.435 549.085C106.338 549.232 105.068 549.043 103.626 548.518ZM103.626 546.047C104.604 546.403 105.448 546.542 106.158 546.464C106.869 546.386 107.418 546.11 107.805 545.637C108.192 545.164 108.389 544.517 108.396 543.696C108.389 542.825 108.178 541.981 107.762 541.163C107.347 540.345 106.781 539.615 106.063 538.972C105.353 538.331 104.54 537.844 103.626 537.511C102.704 537.176 101.881 537.067 101.156 537.185C100.439 537.305 99.8724 537.623 99.4573 538.138C99.0493 538.656 98.8488 539.351 98.8558 540.222C98.8488 541.043 99.0352 541.829 99.4151 542.582C99.8021 543.337 100.354 544.013 101.072 544.611C101.79 545.21 102.641 545.688 103.626 546.047ZM103.626 535.13C104.4 535.412 105.086 535.497 105.684 535.386C106.289 535.277 106.763 534.989 107.108 534.523C107.453 534.057 107.629 533.429 107.636 532.638C107.629 531.856 107.456 531.116 107.119 530.416C106.781 529.709 106.313 529.09 105.715 528.558C105.117 528.018 104.421 527.603 103.626 527.314C102.817 527.019 102.11 526.922 101.505 527.024C100.9 527.118 100.432 527.397 100.101 527.861C99.7704 528.317 99.6086 528.935 99.6156 529.717C99.6086 530.508 99.7739 531.26 100.112 531.975C100.456 532.692 100.931 533.325 101.536 533.875C102.141 534.425 102.838 534.843 103.626 535.13ZM132.279 555.045L137.936 543.448L140.3 544.309L133.293 559.008L131.266 558.27L124.386 538.513L126.708 539.359L132.279 555.045ZM125.905 539.067V556.317L123.415 555.41V538.16L125.905 539.067ZM138.653 560.96V543.709L141.144 544.617V561.867L138.653 560.96Z" fill="black"/>
<path id="2 &#209;&#141;&#209;&#130;&#208;&#176;&#208;&#182;&#208;&#176;" d="M779.037 362.498L777.137 361.806L769.328 351.37C768.413 350.146 767.618 349.123 766.943 348.3C766.261 347.475 765.62 346.815 765.022 346.321C764.417 345.816 763.784 345.443 763.123 345.202C762.363 344.925 761.705 344.881 761.149 345.067C760.594 345.247 760.164 345.615 759.862 346.171C759.559 346.727 759.408 347.421 759.408 348.252C759.408 349.135 759.581 349.969 759.925 350.754C760.263 351.528 760.738 352.207 761.35 352.789C761.962 353.364 762.68 353.801 763.503 354.101V356.751C762.236 356.29 761.125 355.575 760.168 354.605C759.211 353.635 758.465 352.517 757.931 351.252C757.396 349.979 757.129 348.672 757.129 347.332C757.129 345.984 757.396 344.887 757.931 344.041C758.465 343.195 759.187 342.642 760.094 342.381C761.002 342.12 762.011 342.192 763.123 342.597C763.918 342.886 764.695 343.323 765.455 343.906C766.208 344.48 767.049 345.31 767.977 346.397C768.899 347.474 770.025 348.913 771.354 350.715L776.546 357.772L776.715 357.834V347.142L779.037 347.987V362.498ZM764.938 323.569C764.945 324.171 765.089 324.826 765.371 325.535C765.652 326.237 766.025 326.874 766.489 327.448C766.947 328.011 767.457 328.395 768.019 328.6V331.206C767.316 330.949 766.641 330.524 765.993 329.929C765.346 329.334 764.769 328.641 764.263 327.85C763.756 327.051 763.355 326.209 763.06 325.323C762.764 324.429 762.616 323.563 762.616 322.724C762.616 321.152 762.989 319.955 763.735 319.133C764.481 318.304 765.466 317.828 766.69 317.705C767.914 317.574 769.244 317.77 770.679 318.292L771.27 318.508C772.698 319.028 774.028 319.8 775.259 320.825C776.483 321.84 777.468 323.034 778.214 324.406C778.96 325.77 779.332 327.239 779.332 328.811C779.332 330.069 779.072 331.094 778.551 331.885C778.024 332.674 777.32 333.189 776.441 333.43C775.561 333.671 774.584 333.596 773.507 333.204V330.598C774.119 330.821 774.693 330.847 775.227 330.674C775.755 330.492 776.184 330.166 776.515 329.695C776.838 329.213 777.004 328.637 777.011 327.966C777.004 326.96 776.708 325.999 776.124 325.082C775.54 324.166 774.809 323.364 773.929 322.677C773.05 321.99 772.163 321.484 771.27 321.158L770.679 320.943C769.764 320.61 768.871 320.468 767.998 320.517C767.119 320.556 766.391 320.823 765.814 321.317C765.237 321.803 764.945 322.554 764.938 323.569ZM769.708 319.511L772.03 320.357V327.904L769.708 327.059V319.511ZM765.149 314.496L762.827 313.65V299.634L765.149 300.479V306.14L779.037 311.197V313.848L765.149 308.79V314.496ZM779.417 297.628C779.417 298.721 779.223 299.643 778.836 300.393C778.442 301.141 777.876 301.642 777.137 301.897C776.392 302.15 775.491 302.084 774.436 301.699C773.507 301.361 772.754 300.892 772.177 300.293C771.593 299.691 771.136 299.004 770.805 298.232C770.475 297.46 770.229 296.652 770.067 295.807C769.898 294.952 769.764 294.106 769.666 293.269C769.539 292.174 769.444 291.29 769.381 290.615C769.31 289.931 769.194 289.409 769.033 289.051C768.871 288.685 768.589 288.429 768.188 288.283L768.104 288.252C767.063 287.873 766.254 287.882 765.677 288.278C765.1 288.667 764.811 289.472 764.811 290.692C764.811 291.958 765.072 293.044 765.592 293.953C766.113 294.861 766.669 295.569 767.26 296.076L766.415 298.285C765.43 297.477 764.664 296.598 764.115 295.65C763.559 294.691 763.172 293.727 762.954 292.756C762.729 291.776 762.616 290.851 762.616 289.983C762.616 289.429 762.68 288.815 762.806 288.143C762.926 287.46 763.176 286.851 763.556 286.315C763.935 285.772 764.509 285.416 765.276 285.246C766.043 285.076 767.07 285.225 768.357 285.694L779.037 289.583V292.234L776.842 291.434V291.569C777.194 291.877 777.57 292.313 777.971 292.879C778.372 293.444 778.713 294.126 778.995 294.925C779.276 295.724 779.417 296.625 779.417 297.628ZM777.18 296.409C777.18 295.361 776.986 294.407 776.599 293.547C776.212 292.68 775.713 291.952 775.101 291.362C774.489 290.765 773.845 290.343 773.169 290.097L770.89 289.267C771.017 289.425 771.133 289.715 771.238 290.135C771.337 290.545 771.425 291.011 771.502 291.534C771.572 292.046 771.636 292.545 771.692 293.029C771.741 293.504 771.783 293.89 771.819 294.187C771.903 294.907 772.04 295.601 772.23 296.269C772.413 296.927 772.691 297.507 773.064 298.01C773.43 298.503 773.929 298.864 774.562 299.095C775.428 299.41 776.082 299.308 776.525 298.788C776.961 298.258 777.18 297.465 777.18 296.409ZM779.037 285.824L770.805 275.818L762.827 279.831V276.686L769.75 273.457V272.019L762.827 269.498V266.848L769.75 269.369V267.976L762.827 259.705V256.56L770.805 266.339L779.037 262.373V265.563L772.072 268.867V270.214L779.037 272.751V275.401L772.072 272.865V274.212L779.037 282.634V285.824ZM779.417 253.647C779.417 254.741 779.223 255.662 778.836 256.412C778.442 257.16 777.876 257.661 777.137 257.916C776.392 258.169 775.491 258.103 774.436 257.719C773.507 257.38 772.754 256.912 772.177 256.312C771.593 255.71 771.136 255.023 770.805 254.251C770.475 253.48 770.229 252.671 770.067 251.826C769.898 250.971 769.764 250.125 769.666 249.288C769.539 248.193 769.444 247.309 769.381 246.635C769.31 245.95 769.194 245.429 769.033 245.07C768.871 244.704 768.589 244.448 768.188 244.302L768.104 244.272C767.063 243.892 766.254 243.901 765.677 244.297C765.1 244.686 764.811 245.491 764.811 246.711C764.811 247.977 765.072 249.064 765.592 249.972C766.113 250.88 766.669 251.588 767.26 252.095L766.415 254.304C765.43 253.496 764.664 252.618 764.115 251.669C763.559 250.71 763.172 249.746 762.954 248.775C762.729 247.795 762.616 246.87 762.616 246.002C762.616 245.448 762.68 244.834 762.806 244.162C762.926 243.479 763.176 242.87 763.556 242.334C763.935 241.791 764.509 241.435 765.276 241.265C766.043 241.095 767.07 241.244 768.357 241.713L779.037 245.602V248.253L776.842 247.454V247.588C777.194 247.896 777.57 248.333 777.971 248.898C778.372 249.463 778.713 250.145 778.995 250.944C779.276 251.743 779.417 252.644 779.417 253.647ZM777.18 252.428C777.18 251.38 776.986 250.426 776.599 249.566C776.212 248.699 775.713 247.971 775.101 247.381C774.489 246.784 773.845 246.362 773.169 246.116L770.89 245.286C771.017 245.445 771.133 245.734 771.238 246.154C771.337 246.564 771.425 247.031 771.502 247.553C771.572 248.065 771.636 248.564 771.692 249.049C771.741 249.523 771.783 249.909 771.819 250.207C771.903 250.926 772.04 251.62 772.23 252.288C772.413 252.946 772.691 253.527 773.064 254.029C773.43 254.522 773.929 254.884 774.562 255.114C775.428 255.429 776.082 255.327 776.525 254.807C776.961 254.277 777.18 253.484 777.18 252.428Z" fill="black"/>
</g>
</g>
<defs>
<clipPath id="clip0_251_42">
<rect width="857" height="686" fill="white"/>
</clipPath>
</defs>
</svg>
